<svg width="20" height="20" viewBox="0 0 20 20" fill="none" xmlns="http://www.w3.org/2000/svg">
<path d="M7.02563 8.76974L7.0249 8.77028C6.62314 9.06668 6.1286 9.20055 5.57114 9.2006L7.02563 8.76974ZM7.02563 8.76974C7.47708 8.4351 7.66407 7.91266 7.66296 7.3029M7.02563 8.76974L7.66296 7.3029M7.66296 7.3029C7.66296 6.96416 7.60176 6.64976 7.45276 6.38471C7.31522 6.14003 7.12617 5.93979 6.88593 5.79625C6.66303 5.66307 6.41422 5.57452 6.14373 5.52594L6.14373 5.52594L6.14179 5.5256C5.88428 5.48065 5.62208 5.45737 5.35771 5.45853H2.76875H2.36875V5.85853V8.80283V9.20314L2.76906 9.20283L5.57082 9.2006L7.66296 7.3029ZM13.7466 14.1644C14.2198 14.6233 14.8748 14.8236 15.647 14.8236C16.2225 14.8236 16.7389 14.6783 17.179 14.3737C17.4826 14.1636 17.7304 13.922 17.8847 13.6426H19.2494C18.9289 14.3921 18.5022 14.9176 17.9856 15.2508C17.3328 15.6717 16.5304 15.8924 15.5581 15.8924C14.8842 15.8924 14.2888 15.7849 13.7671 15.5774C13.2424 15.3688 12.8044 15.074 12.4468 14.6956C12.0863 14.3141 11.8051 13.8569 11.6058 13.3165C11.4074 12.778 11.305 12.1788 11.305 11.516C11.305 10.8792 11.4087 10.2934 11.6133 9.75486C11.8186 9.21463 12.1083 8.75335 12.4804 8.36521C12.8528 7.97664 13.2991 7.66878 13.8226 7.44224C14.3369 7.2197 14.9141 7.10516 15.5592 7.10516C16.2826 7.10516 16.8924 7.24481 17.402 7.50984C17.9254 7.78266 18.3507 8.14519 18.6829 8.59909C19.0209 9.06092 19.2676 9.58915 19.4202 10.1891C19.5447 10.6787 19.6049 11.1878 19.5997 11.7182H13.4093H12.9919L13.0097 12.1353C13.0462 12.9909 13.266 13.6993 13.7466 14.1644ZM13.7466 14.1644C13.7466 14.1644 13.7467 14.1645 13.7467 14.1645L14.0248 13.877L13.7463 14.1641C13.7464 14.1642 13.7465 14.1643 13.7466 14.1644ZM8.06003 9.09319L7.11226 9.54745L8.12222 9.83828C8.82631 10.041 9.31943 10.3851 9.63953 10.8522C9.96891 11.3328 10.1428 11.9241 10.1428 12.6448C10.1428 13.2273 10.0298 13.7102 9.81954 14.106C9.60152 14.5165 9.31094 14.8469 8.94634 15.1029L8.94576 15.1033C8.57029 15.3679 8.13904 15.5656 7.64649 15.6957C7.14221 15.828 6.62235 15.8946 6.1016 15.8936H6.1008H0.4V4.10642H5.92303C6.49851 4.10642 7.0167 4.1577 7.47943 4.25649C7.93182 4.35306 8.30363 4.50849 8.60582 4.71535C8.89844 4.91566 9.12669 5.18119 9.29198 5.52121C9.45274 5.85192 9.54282 6.28129 9.54282 6.82737C9.54282 7.40061 9.41287 7.84626 9.17982 8.18908C8.93985 8.54208 8.57396 8.84687 8.06003 9.09319ZM6.58728 14.454L6.58728 14.4541L6.58975 14.4535C6.87776 14.3912 7.14266 14.2864 7.377 14.1325C7.62488 13.9697 7.81915 13.7497 7.96059 13.4837L7.96135 13.4822C8.11161 13.1967 8.17516 12.8563 8.17516 12.4849C8.17516 11.7694 7.97138 11.162 7.4701 10.7828C7.01707 10.439 6.44166 10.2872 5.78304 10.2872H2.76875H2.36875V10.6872V14.1426V14.5427L2.7689 14.5426L5.72879 14.5414C6.01798 14.5426 6.30577 14.5131 6.58728 14.454ZM19.403 13.2426H19.8245C19.78 13.3809 19.7324 13.5143 19.6818 13.6426L19.403 13.2426ZM17.1507 8.81379L17.1502 8.81325C16.7494 8.37383 16.1681 8.1895 15.4881 8.1895C15.0457 8.1895 14.6464 8.26409 14.3107 8.43546L14.3101 8.43576C14.0037 8.59282 13.7449 8.79339 13.545 9.0451L13.8582 9.29391L13.545 9.0451C13.3567 9.28213 13.2196 9.53942 13.1394 9.81743C13.0698 10.0589 13.0236 10.2887 13.0101 10.5019L12.9832 10.9272H13.4093H17.4813H17.9634L17.8745 10.4534C17.7478 9.77845 17.5171 9.21699 17.1507 8.81379ZM13.3804 4.74528H17.668V5.35632H13.3804V4.74528Z" stroke="#FF6E4A" stroke-width="0.8"/>
</svg>
