<svg width="30" height="30" viewBox="0 0 30 30" fill="none" xmlns="http://www.w3.org/2000/svg">
<path d="M10.4193 12.9939L10.4186 12.9945C9.85797 13.4081 9.16066 13.6009 8.35655 13.6009L10.4193 12.9939ZM10.4193 12.9939C11.0297 12.5415 11.2961 11.8285 11.2944 10.9544M10.4193 12.9939L8.35624 13.6009L4.15344 13.6042L3.75312 13.6046V13.2042V8.7878V8.3878H4.15312H8.03701C8.42138 8.38608 8.80302 8.41992 9.1783 8.48542L9.18024 8.48576C9.56517 8.5549 9.91508 8.68011 10.2263 8.86607C10.5549 9.06238 10.8145 9.33651 11.0048 9.67507C11.2066 10.034 11.2944 10.469 11.2944 10.9544M11.2944 10.9544H10.8944L11.2944 10.9535C11.2944 10.9538 11.2944 10.9541 11.2944 10.9544ZM19.6965 17.7773H20.114H29.5956C29.6218 16.8941 29.5308 16.0472 29.3241 15.2344C29.0894 14.3111 28.7087 13.4951 28.1857 12.7805C27.6686 12.0739 27.0066 11.5102 26.1955 11.0874L19.6965 17.7773ZM19.6965 17.7773L19.7143 18.1944M19.6965 17.7773L19.7143 18.1944M19.7143 18.1944C19.768 19.4537 20.0905 20.4558 20.7587 21.1026C21.4196 21.744 22.3454 22.0355 23.4705 22.0355M19.7143 18.1944L23.4705 22.0355M23.4705 22.0355C24.2987 22.0355 25.0323 21.8268 25.6547 21.3961C26.1347 21.0638 26.5011 20.6891 26.7053 20.2639M23.4705 22.0355L26.7053 20.2639M26.7053 20.2639H29.1714C28.6687 21.5633 27.9669 22.4767 27.0868 23.0442C26.0696 23.7002 24.8266 24.0387 23.3371 24.0387C22.3049 24.0387 21.3862 23.8739 20.5768 23.552C19.7643 23.2289 19.0824 22.7708 18.5248 22.1807C17.9644 21.5876 17.5287 20.8782 17.2211 20.0439C16.9143 19.2115 16.7575 18.2891 16.7575 17.274C16.7575 16.2967 16.9168 15.3936 17.2331 14.5613C17.55 13.7272 17.9986 13.012 18.5762 12.4094C19.1542 11.8064 19.846 11.3297 20.6545 10.9798C21.4537 10.6339 22.3471 10.4577 23.3388 10.4577C24.45 10.4577 25.3975 10.6724 26.1954 11.0874L26.7053 20.2639ZM12.1765 13.8201L11.2287 14.2744L12.2387 14.5652C13.3305 14.8796 14.1131 15.4192 14.6243 16.1652C15.1448 16.9247 15.4142 17.8526 15.4142 18.9673C15.4142 19.8669 15.2395 20.6248 14.9059 21.2529C14.5646 21.8956 14.1079 22.4154 13.5344 22.818L13.5339 22.8184C12.9496 23.2302 12.2808 23.5362 11.5212 23.7368C10.7479 23.9397 9.95067 24.0419 9.152 24.0403H9.1512H0.4V5.95963H8.88454C9.75945 5.95963 10.551 6.03758 11.2609 6.18914C11.9605 6.33849 12.5434 6.58057 13.0217 6.90798C13.4904 7.22885 13.8553 7.65437 14.1178 8.19438C14.3758 8.72508 14.5142 9.40111 14.5142 10.2411C14.5142 11.1315 14.3121 11.8416 13.9351 12.3961C13.5513 12.9607 12.9721 13.4388 12.1765 13.8201ZM9.83989 21.4853L9.83989 21.4853L9.84236 21.4848C10.2537 21.3959 10.6275 21.2471 10.9557 21.0315C11.2975 20.807 11.5667 20.5033 11.7643 20.1316L11.765 20.1302C11.9709 19.7392 12.0627 19.2632 12.0627 18.7273C12.0627 17.6891 11.7678 16.8505 11.0843 16.3335C10.4491 15.8514 9.63258 15.6308 8.67455 15.6308H4.15312H3.75312V16.0308V21.2138V21.614L4.15327 21.6138L8.59385 21.6122C9.01352 21.6139 9.43123 21.571 9.83989 21.4853ZM25.5781 13.3552L25.5776 13.3547C25.0267 12.7508 24.2177 12.4843 23.2321 12.4843C22.5898 12.4843 22.0243 12.5927 21.557 12.8313L21.5564 12.8316C21.1178 13.0565 20.7535 13.3404 20.4741 13.6921C20.2063 14.0291 20.0137 14.3919 19.9013 14.7816C19.7994 15.1347 19.7338 15.4645 19.7148 15.7655L19.6879 16.1908H20.114H26.222H26.7041L26.6151 15.717C26.429 14.7254 26.0939 13.9228 25.5781 13.3552ZM19.8707 6.91792H26.7019V8.23447H19.8707V6.91792Z" stroke="#FF6E4A" stroke-width="0.8"/>
</svg>
