<svg width="20" height="20" viewBox="0 0 20 20" fill="none" xmlns="http://www.w3.org/2000/svg">
<g clip-path="url(#clip0_306_68)">
<path d="M4.47581 17.1831C5.0149 17.5887 5.82526 17.8734 7 17.7372V19.0057C6.98915 19.0054 6.97582 19.0044 6.95978 19.0023C3.20316 17.7347 0.5 14.1828 0.5 10C0.5 4.75367 4.75445 0.5 10 0.5C15.2464 0.5 19.5 4.75364 19.5 10C19.5 14.1822 16.7989 17.7338 13.0444 19.0023C13.0266 19.0049 13.0119 19.0061 13 19.0066V16.2642C13 15.6784 12.8846 15.1835 12.6977 14.787C13.5949 14.6162 14.5068 14.301 15.253 13.6763C16.2562 12.8365 16.88 11.5081 16.88 9.47833C16.88 8.37179 16.5208 7.43702 15.9153 6.68429C16.0604 6.16888 16.2004 5.1861 15.7175 3.9638L15.6305 3.7435L15.4049 3.6713L15.2525 4.1475C15.4049 3.6713 15.4044 3.67114 15.404 3.67099L15.403 3.67068L15.4009 3.67004L15.3966 3.66871L15.387 3.66588C15.3801 3.66393 15.3724 3.66185 15.3637 3.6597C15.3465 3.65539 15.3258 3.65082 15.3016 3.64645C15.2531 3.63769 15.1908 3.62978 15.1145 3.6263C14.9615 3.61932 14.7547 3.63023 14.4915 3.68577C14 3.78948 13.3156 4.04788 12.4156 4.63187C11.6359 4.43678 10.8152 4.33982 10.0025 4.33581L9.99755 4.33584C9.18495 4.33982 8.365 4.43675 7.5867 4.63182C6.6858 4.04779 6.00065 3.78943 5.50862 3.68574C5.2451 3.63022 5.03809 3.61933 4.88502 3.6263C4.80864 3.62978 4.74635 3.63768 4.69783 3.64642C4.67359 3.65079 4.65288 3.65535 4.63565 3.65964C4.62704 3.66179 4.61931 3.66387 4.61245 3.66581L4.60283 3.66863L4.59851 3.66995L4.59647 3.67059L4.59549 3.6709C4.595 3.67106 4.59452 3.67121 4.74667 4.1475L4.59452 3.67121L4.36863 3.74337L4.28158 3.96394C3.79908 5.18647 3.93978 6.16954 4.08489 6.6847C3.48166 7.43632 3.11917 8.37005 3.11917 9.47833C3.11917 11.5033 3.74195 12.8314 4.74229 13.6734C5.48877 14.3017 6.40141 14.6204 7.2991 14.7939C7.21567 14.9745 7.14739 15.175 7.09793 15.3944C6.85924 15.4754 6.55694 15.5406 6.24979 15.5131C5.86324 15.4786 5.4257 15.2962 5.06386 14.6781L5.06358 14.6776L5.05572 14.6639C5.04938 14.6531 5.04082 14.6387 5.03004 14.6214C5.00852 14.5867 4.97797 14.5398 4.93842 14.4845C4.85977 14.3746 4.74297 14.2279 4.58778 14.078C4.28083 13.7813 3.79277 13.4431 3.13227 13.397L3.11831 13.3961L3.10433 13.3959L3.0975 13.8958C3.10433 13.3959 3.10417 13.3959 3.10401 13.3959L3.10367 13.3959L3.10292 13.3959L3.10113 13.3958L3.09645 13.3958L3.08286 13.3958C3.07204 13.3959 3.05759 13.3962 3.04031 13.3968C3.00619 13.3979 2.95875 13.4005 2.9048 13.4064C2.81676 13.416 2.63546 13.4412 2.47562 13.532C2.39036 13.5805 2.26523 13.6735 2.1933 13.838C2.11455 14.018 2.136 14.1986 2.19513 14.3397C2.29253 14.5722 2.51498 14.7579 2.74602 14.916L2.77942 14.9389L2.80872 14.9526C2.80933 14.9529 2.81005 14.9533 2.81089 14.9538C2.81803 14.9579 2.83349 14.967 2.85576 14.9822C2.90021 15.0126 2.9721 15.0674 3.05916 15.1547C3.23095 15.3269 3.46877 15.6323 3.67025 16.1405C3.67264 16.1472 3.67556 16.1553 3.67907 16.1645C3.68713 16.1856 3.69826 16.2132 3.71294 16.2461C3.74225 16.3117 3.786 16.3992 3.84801 16.4993C3.97192 16.6994 4.17095 16.9536 4.47581 17.1831Z" stroke="#FF6E4A"/>
</g>
<defs>
<clipPath id="clip0_306_68">
<rect width="20" height="20" fill="white"/>
</clipPath>
</defs>
</svg>
