<svg width="30" height="30" viewBox="0 0 30 30" fill="none" xmlns="http://www.w3.org/2000/svg">
<g clip-path="url(#clip0_306_68)">
<path d="M6.86404 25.5748C7.65469 26.1698 8.88868 26.5996 10.75 26.3204V28.5125C10.75 28.6216 10.7151 28.6874 10.6886 28.7129L10.6883 28.7132C10.6794 28.7217 10.6145 28.7845 10.3814 28.7475C4.63661 26.8193 0.5 21.3927 0.5 15C0.5 6.99242 6.99362 0.5 15 0.5C23.0076 0.5 29.5 6.99239 29.5 15C29.5 21.3912 25.3672 26.8171 19.6263 28.747C19.3848 28.788 19.3189 28.724 19.3113 28.7166L19.311 28.7162C19.2858 28.6921 19.25 28.6262 19.25 28.5125V24.3962C19.25 23.3943 19.0167 22.5907 18.6658 21.9941C20.0958 21.7579 21.5525 21.2993 22.7191 20.3228C24.1538 19.1218 25.07 17.2075 25.07 14.2175C25.07 12.5669 24.5192 11.1857 23.5956 10.0825C23.8113 9.39344 24.0851 7.91408 23.3438 6.03754L23.2568 5.81725L23.0312 5.74505L22.8787 6.22125C23.0312 5.74505 23.0307 5.74489 23.0302 5.74474L23.0292 5.74442L23.0271 5.74376L23.0225 5.74237L23.012 5.73927C23.0084 5.73825 23.0046 5.73718 23.0004 5.73607C22.9957 5.7348 22.9906 5.73347 22.9851 5.7321C22.9645 5.72697 22.9388 5.72127 22.9079 5.7157C22.8461 5.70453 22.7637 5.69391 22.6603 5.68919C22.4531 5.67974 22.1641 5.69408 21.7888 5.77327C21.0718 5.92457 20.044 6.31158 18.6682 7.21717C17.4883 6.91183 16.2399 6.75982 15.0025 6.75373L14.9975 6.75376C13.7603 6.75982 12.513 6.9118 11.3354 7.21712C9.95827 6.31149 8.92921 5.92451 8.21138 5.77324C7.83565 5.69407 7.54628 5.67974 7.3389 5.68919C7.23538 5.69391 7.15295 5.70452 7.09107 5.71567C7.06016 5.72124 7.03447 5.72692 7.01394 5.73204C7.00367 5.7346 6.9947 5.73702 6.98702 5.7392L6.97647 5.74229L6.97192 5.74368L6.96983 5.74433L6.96882 5.74465C6.96834 5.74481 6.96785 5.74496 7.12 6.22125L6.96785 5.74496L6.74197 5.81712L6.65491 6.03769C5.91425 7.91433 6.18912 9.39407 6.40466 10.0829C5.48456 11.1849 4.92875 12.5646 4.92875 14.2175C4.92875 17.2002 5.84341 19.1143 7.27443 20.3188C8.44037 21.3001 9.89682 21.7643 11.3261 22.0049C11.1215 22.359 10.9598 22.7852 10.8627 23.2799C10.4664 23.4292 9.91917 23.5693 9.35245 23.5187C8.69363 23.4599 7.96373 23.1417 7.37895 22.1416L7.3778 22.1396L7.36763 22.1219C7.35923 22.1075 7.34759 22.0879 7.33271 22.064C7.30299 22.0162 7.26016 21.9503 7.2043 21.8723C7.09303 21.7167 6.92753 21.5089 6.70794 21.2967C6.27218 20.8756 5.59257 20.4085 4.68102 20.345L4.66706 20.344L4.65307 20.3438L4.64625 20.8437C4.65307 20.3438 4.65292 20.3438 4.65275 20.3438L4.6524 20.3438L4.65158 20.3438L4.64953 20.3438L4.64381 20.3437L4.62624 20.3438C4.61195 20.3439 4.59248 20.3442 4.56896 20.345C4.52238 20.3466 4.45764 20.3501 4.38433 20.3581C4.25761 20.372 4.02944 20.406 3.83692 20.5154C3.73532 20.5731 3.59739 20.6779 3.51901 20.8571C3.4338 21.052 3.45513 21.2503 3.52327 21.413C3.6387 21.6885 3.91571 21.932 4.26019 22.1677L4.29359 22.1905L4.32548 22.2055C4.32775 22.2067 4.33252 22.2092 4.3396 22.2132C4.35614 22.2226 4.3853 22.24 4.42472 22.2669C4.50347 22.3208 4.62345 22.4129 4.76572 22.5555C5.0478 22.8382 5.42435 23.3263 5.73955 24.1231L5.73966 24.1235C5.74282 24.1324 5.74698 24.1439 5.75224 24.1577C5.76276 24.1854 5.77769 24.2224 5.79769 24.2672C5.83763 24.3566 5.89813 24.4778 5.98458 24.6174C6.15736 24.8964 6.43605 25.2527 6.86404 25.5748Z" stroke="#FF6E4A"/>
</g>
<defs>
<clipPath id="clip0_306_68">
<rect width="30" height="30" fill="white"/>
</clipPath>
</defs>
</svg>
